# This file uses centimeters as units for non-parametric coordinates.

mtllib polys.mtl
g default
v -2.496792 0.000000 -2.496792
v -2.496792 0.000000 -1.248396
v -2.496792 0.000000 0.000000
v -2.496792 0.000000 1.248396
v -2.496792 0.000000 2.496792
v -1.248396 0.000000 -2.496792
v -1.248396 0.000000 -1.248396
v -1.248396 0.000000 0.000000
v -1.248396 0.000000 1.248396
v -1.248396 0.000000 2.496792
v 0.000000 0.000000 -2.496792
v 0.000000 0.000000 -1.248396
v 0.000000 0.000000 0.000000
v 0.000000 0.000000 1.248396
v 0.000000 0.000000 2.496792
v 1.248396 0.000000 -2.496792
v 1.248396 0.000000 -1.248396
v 1.248396 0.000000 0.000000
v 1.248396 0.000000 1.248396
v 1.248396 0.000000 2.496792
v 2.496792 0.000000 -2.496792
v 2.496792 0.000000 -1.248396
v 2.496792 0.000000 0.000000
v 2.496792 0.000000 1.248396
v 2.496792 0.000000 2.496792
v -1.248396 1.007573 -1.248396
v -1.248396 1.007573 0.000000
v 0.000000 1.007573 0.000000
v 0.000000 1.007573 -1.248396
vt 0.000000 0.000000
vt 0.250000 0.000000
vt 0.500000 0.000000
vt 0.750000 0.000000
vt 1.000000 0.000000
vt 0.000000 0.250000
vt 0.250000 0.250000
vt 0.500000 0.250000
vt 0.750000 0.250000
vt 1.000000 0.250000
vt 0.000000 0.500000
vt 0.250000 0.500000
vt 0.500000 0.500000
vt 0.750000 0.500000
vt 1.000000 0.500000
vt 0.000000 0.750000
vt 0.250000 0.750000
vt 0.500000 0.750000
vt 0.750000 0.750000
vt 1.000000 0.750000
vt 0.000000 1.000000
vt 0.250000 1.000000
vt 0.500000 1.000000
vt 0.750000 1.000000
vt 1.000000 1.000000
vt 0.250000 0.250000
vt 0.500000 0.250000
vt 0.500000 0.500000
vt 0.250000 0.500000
vn 0.000000 1.000000 0.000000
vn 0.000000 1.000000 0.000000
vn 0.000000 1.000000 0.000000
vn 0.000000 1.000000 0.000000
vn 0.000000 1.000000 0.000000
vn 0.000000 1.000000 0.000000
vn 0.000000 1.000000 0.000000
vn 0.000000 1.000000 0.000000
vn 0.000000 1.000000 0.000000
vn 0.000000 1.000000 0.000000
vn 0.000000 1.000000 0.000000
vn 0.000000 1.000000 0.000000
vn 0.000000 1.000000 0.000000
vn 0.000000 1.000000 0.000000
vn 0.000000 1.000000 0.000000
vn 0.000000 1.000000 0.000000
vn 0.000000 1.000000 0.000000
vn 0.000000 1.000000 0.000000
vn 0.000000 1.000000 0.000000
vn 0.000000 1.000000 0.000000
vn 0.000000 1.000000 0.000000
vn 0.000000 1.000000 0.000000
vn 0.000000 1.000000 0.000000
vn 0.000000 1.000000 0.000000
vn 0.000000 1.000000 0.000000
vn 0.000000 1.000000 0.000000
vn 0.000000 1.000000 0.000000
vn 0.000000 1.000000 0.000000
vn 0.000000 1.000000 0.000000
vn -1.000000 0.000000 0.000000
vn -1.000000 0.000000 0.000000
vn -1.000000 0.000000 0.000000
vn -1.000000 0.000000 0.000000
vn 0.000000 0.000000 1.000000
vn 0.000000 0.000000 1.000000
vn 0.000000 0.000000 1.000000
vn 0.000000 0.000000 1.000000
vn 1.000000 0.000000 0.000000
vn 1.000000 0.000000 0.000000
vn 1.000000 0.000000 0.000000
vn 1.000000 0.000000 0.000000
vn -0.000000 0.000000 -1.000000
vn -0.000000 0.000000 -1.000000
vn -0.000000 0.000000 -1.000000
vn -0.000000 0.000000 -1.000000
s 1
g pPlane1
usemtl initialShadingGroup
f 1/1/1 2/2/2 7/7/3 6/6/4
f 2/2/2 3/3/5 8/8/6 7/7/3
f 3/3/5 4/4/7 9/9/8 8/8/6
f 4/4/7 5/5/9 10/10/10 9/9/8
f 6/6/4 7/7/3 12/12/11 11/11/12
s off
f 26/26/13 27/27/14 28/28/15 29/29/16
s 1
f 8/8/6 9/9/8 14/14/17 13/13/18
f 9/9/8 10/10/10 15/15/19 14/14/17
f 11/11/12 12/12/11 17/17/20 16/16/21
f 12/12/11 13/13/18 18/18/22 17/17/20
f 13/13/18 14/14/17 19/19/23 18/18/22
f 14/14/17 15/15/19 20/20/24 19/19/23
f 16/16/21 17/17/20 22/22/25 21/21/26
f 17/17/20 18/18/22 23/23/27 22/22/25
f 18/18/22 19/19/23 24/24/28 23/23/27
f 19/19/23 20/20/24 25/25/29 24/24/28
s off
f 7/7/30 8/8/31 27/27/32 26/26/33
f 8/8/34 13/13/35 28/28/36 27/27/37
f 13/13/38 12/12/39 29/29/40 28/28/41
f 12/12/42 7/7/43 26/26/44 29/29/45
g default
v -1.215511 -0.046171 0.330858
v -1.215511 -0.046171 2.062909
v 0.284489 -0.046171 1.196884
v -0.715511 0.953829 1.196884
vt 0.250000 0.500000
vt 0.416667 0.500000
vt 0.583333 0.500000
vt 0.750000 0.500000
vt 0.500000 1.000000
vn -0.894427 0.447214 -0.000000
vn -0.894427 0.447214 -0.000000
vn -0.894427 0.447214 -0.000000
vn 0.447214 0.447214 0.774597
vn 0.447214 0.447214 0.774597
vn 0.447214 0.447214 0.774597
vn 0.447214 0.447214 -0.774597
vn 0.447214 0.447214 -0.774597
vn 0.447214 0.447214 -0.774597
s off
g pCone1
usemtl initialShadingGroup
f 30/30/46 31/31/47 33/34/48
f 31/31/49 32/32/50 33/34/51
f 32/32/52 30/33/53 33/34/54
g default
v 1.560267 -0.103346 -0.148549
v 1.465049 -0.103346 -0.256028
v 1.330791 -0.103346 -0.306945
v 1.188248 -0.103346 -0.289637
v 1.070076 -0.103346 -0.208069
v 1.003347 -0.103346 -0.080927
v 1.003347 -0.103346 0.062662
v 1.070076 -0.103346 0.189804
v 1.188248 -0.103346 0.271372
v 1.330791 -0.103346 0.288680
v 1.465049 -0.103346 0.237763
v 1.560266 -0.103346 0.130285
v 1.594630 -0.103346 -0.009132
v 1.560267 1.896654 -0.148549
v 1.465049 1.896654 -0.256028
v 1.330791 1.896654 -0.306945
v 1.188248 1.896654 -0.289637
v 1.070076 1.896654 -0.208069
v 1.003347 1.896654 -0.080927
v 1.003347 1.896654 0.062662
v 1.070076 1.896654 0.189804
v 1.188248 1.896654 0.271372
v 1.330791 1.896654 0.288680
v 1.465049 1.896654 0.237763
v 1.560266 1.896654 0.130285
v 1.594630 1.896654 -0.009132
v 1.294630 1.896654 -0.009132
vt 0.375000 0.312500
vt 0.394231 0.312500
vt 0.413462 0.312500
vt 0.432692 0.312500
vt 0.451923 0.312500
vt 0.471154 0.312500
vt 0.490385 0.312500
vt 0.509615 0.312500
vt 0.528846 0.312500
vt 0.548077 0.312500
vt 0.567308 0.312500
vt 0.586539 0.312500
vt 0.605769 0.312500
vt 0.625000 0.312500
vt 0.375000 0.688440
vt 0.394231 0.688440
vt 0.413462 0.688440
vt 0.432692 0.688440
vt 0.451923 0.688440
vt 0.471154 0.688440
vt 0.490385 0.688440
vt 0.509615 0.688440
vt 0.528846 0.688440
vt 0.548077 0.688440
vt 0.567308 0.688440
vt 0.586539 0.688440
vt 0.605769 0.688440
vt 0.625000 0.688440
vt 0.638353 0.771137
vt 0.588760 0.715159
vt 0.518834 0.688639
vt 0.444593 0.697654
vt 0.383045 0.740137
vt 0.348290 0.806357
vt 0.348290 0.881143
vt 0.383045 0.947363
vt 0.444593 0.989846
vt 0.518834 0.998861
vt 0.588760 0.972341
vt 0.638353 0.916363
vt 0.656250 0.843750
vt 0.500000 0.837500
vn 0.885456 0.000000 -0.464723
vn 0.568065 0.000000 -0.822984
vn 0.568065 0.000000 -0.822984
vn 0.885456 0.000000 -0.464723
vn 0.120537 0.000000 -0.992709
vn 0.120537 0.000000 -0.992709
vn -0.354605 0.000000 -0.935016
vn -0.354605 0.000000 -0.935016
vn -0.748511 0.000000 -0.663123
vn -0.748511 0.000000 -0.663123
vn -0.970942 0.000000 -0.239316
vn -0.970942 0.000000 -0.239316
vn -0.970942 0.000000 0.239316
vn -0.970942 0.000000 0.239316
vn -0.748511 0.000000 0.663122
vn -0.748511 0.000000 0.663122
vn -0.354605 0.000000 0.935016
vn -0.354605 0.000000 0.935016
vn 0.120537 0.000000 0.992709
vn 0.120537 0.000000 0.992709
vn 0.568065 0.000000 0.822984
vn 0.568065 0.000000 0.822984
vn 0.885456 0.000000 0.464723
vn 0.885456 0.000000 0.464723
vn 1.000000 0.000000 0.000000
vn 1.000000 0.000000 0.000000
vn 0.000000 1.000000 0.000000
vn 0.000000 1.000000 0.000000
vn 0.000000 1.000000 -0.000000
vn 0.000000 1.000000 -0.000000
vn 0.000000 1.000000 -0.000000
vn 0.000000 1.000000 0.000000
vn 0.000000 1.000000 0.000000
vn 0.000000 1.000000 0.000000
vn 0.000000 1.000000 0.000000
vn 0.000000 1.000000 -0.000000
vn 0.000000 1.000000 -0.000000
vn 0.000000 1.000000 -0.000000
vn 0.000000 1.000000 0.000000
vn 0.000000 1.000000 0.000000
s 1
g pCylinder1
usemtl initialShadingGroup
f 34/35/55 35/36/56 48/50/57 47/49/58
f 35/36/56 36/37/59 49/51/60 48/50/57
f 36/37/59 37/38/61 50/52/62 49/51/60
f 37/38/61 38/39/63 51/53/64 50/52/62
f 38/39/63 39/40/65 52/54/66 51/53/64
f 39/40/65 40/41/67 53/55/68 52/54/66
f 40/41/67 41/42/69 54/56/70 53/55/68
f 41/42/69 42/43/71 55/57/72 54/56/70
f 42/43/71 43/44/73 56/58/74 55/57/72
f 43/44/73 44/45/75 57/59/76 56/58/74
f 44/45/75 45/46/77 58/60/78 57/59/76
f 45/46/77 46/47/79 59/61/80 58/60/78
f 46/47/79 34/48/55 47/62/58 59/61/80
s 2
f 47/74/81 48/73/82 60/76/83
f 48/73/82 49/72/84 60/76/83
f 49/72/84 50/71/85 60/76/83
f 50/71/85 51/70/86 60/76/83
f 51/70/86 52/69/87 60/76/83
f 52/69/87 53/68/88 60/76/83
f 53/68/88 54/67/89 60/76/83
f 54/67/89 55/66/90 60/76/83
f 55/66/90 56/65/91 60/76/83
f 56/65/91 57/64/92 60/76/83
f 57/64/92 58/63/93 60/76/83
f 58/63/93 59/75/94 60/76/83
f 59/75/94 47/74/81 60/76/83
